<svg xmlns="http://www.w3.org/2000/svg" xmlns:xlink="http://www.w3.org/1999/xlink" version="1.1" x="0px" y="0px" viewBox="0 0 512 640" style="enable-background:new 0 0 512 512;" xml:space="preserve"><g><path d="M455.515,131.972h-19.079v-15.534c0-13.622-11.083-24.692-24.706-24.692H56.492c-13.622,0-24.706,11.069-24.706,24.692   v238.899c0,13.622,11.083,24.692,24.706,24.692h19.079v15.534c0,13.622,11.083,24.692,24.699,24.692h355.246   c13.615,0,24.699-11.069,24.699-24.692V156.678C480.214,143.055,469.13,131.972,455.515,131.972z M56.492,369.815   c-7.981,0-14.478-6.505-14.478-14.478V116.438c0-7.974,6.497-14.478,14.478-14.478h355.239c7.981,0,14.478,6.505,14.478,14.478   v15.534h-325.94c-13.615,0-24.699,11.083-24.699,24.706v213.138H56.492z M469.986,395.562c0,7.974-6.49,14.478-14.471,14.478   H100.269c-7.981,0-14.471-6.505-14.471-14.478V156.678c0-7.988,6.49-14.493,14.471-14.493h355.246   c7.981,0,14.471,6.505,14.471,14.493V395.562z"/><path d="M234.91,267.697c-9.429-5.292-19.3-9.115-29.342-11.383c-1.762-0.399-3.559,0-4.935,1.127   c-1.391,1.113-2.197,2.782-2.197,4.565c0,8.573-3.873,16.504-10.627,21.796l-4.13,3.234l-4.151-3.249   c-6.654-5.192-10.627-13.337-10.627-21.782c0-1.783-0.806-3.452-2.197-4.565c-1.376-1.113-3.202-1.526-4.935-1.127   c-10.035,2.268-19.906,6.091-29.342,11.383c-11.868,6.661-19.243,19.228-19.243,32.808v48.242c0,3.224,2.618,5.848,5.841,5.848   h129.285c3.224,0,5.841-2.625,5.841-5.848v-48.242C254.153,286.925,246.778,274.358,234.91,267.697z M242.47,342.898H124.868   v-42.394c0-9.357,5.092-18.016,13.273-22.623c6.412-3.58,13.038-6.419,19.77-8.473c1.755,9.286,6.797,17.631,14.414,23.593   l7.746,6.062c0.13,0.101,0.29,0.124,0.426,0.212c0.323,0.211,0.656,0.359,1.009,0.502c0.357,0.144,0.701,0.277,1.072,0.348   c0.351,0.068,0.693,0.072,1.051,0.075c0.397,0.003,0.776-0.005,1.163-0.082c0.334-0.065,0.643-0.187,0.966-0.313   c0.392-0.152,0.76-0.319,1.115-0.557c0.127-0.084,0.276-0.103,0.399-0.199l7.731-6.048c7.624-5.962,12.667-14.307,14.421-23.593   c6.733,2.054,13.359,4.893,19.763,8.473c8.188,4.593,13.28,13.266,13.28,22.623V342.898z"/><path d="M151.007,227.528c2.86,10.955,12.239,27.83,31.66,27.83c0.471,0.014,0.956,0.014,1.391,0   c19.613,0,29.242-16.875,32.237-27.801c5.649-3.809,7.881-8.359,8.744-11.682c1.648-6.305-0.428-11.968-1.747-14.678l-0.021-4.95   c0.043-1.512,0.029-2.938-0.021-4.251c0.706-21.097-16.268-29.256-16.882-29.527c-22.88-11.297-39.526-1.298-46.808,7.275   c-2.318,0.242-5.299,1.084-8.116,3.438c-5.214,4.379-7.696,12.139-7.375,22.88l-0.021,5.135c-1.312,2.724-3.388,8.373-1.747,14.678   C143.162,219.184,145.387,223.72,151.007,227.528z M154.837,205.775c0.578-0.927,0.892-1.997,0.892-3.095l0.021-6.776   c-0.285-9.557,2.061-12.738,3.081-13.665c0.991-0.899,2.083-0.927,2.354-0.927c0.05-0.014,0.071-0.014,0.064,0   c2.297,0.471,4.721-0.514,6.062-2.482c1.17-1.712,12.125-16.632,33.956-5.848c0.442,0.214,10.827,5.435,10.292,18.8   c0,0.157,0,0.328,0.007,0.499c0.05,1.113,0.064,2.325,0.021,3.823l0.029,6.59c0,1.041,0.321,2.125,0.863,3.024   c0.021,0.043,2.197,3.737,1.241,7.275c-0.592,2.168-2.396,4.094-5.349,5.72c-1.512,0.827-2.582,2.297-2.924,3.98   c-0.178,0.856-4.458,20.983-21.639,20.983c-0.15,0-0.3,0-0.449-0.014c-0.143,0.014-0.285,0.014-0.435,0.014   c-16.882,0-20.847-20.041-21.004-20.897c-0.328-1.726-1.405-3.224-2.946-4.065c-2.96-1.626-4.757-3.552-5.349-5.72   C152.669,209.456,154.837,205.775,154.837,205.775z"/><path d="M450.872,179.401c-6.547-7.417-13.088-14.821-19.856-22.024c-2.996-3.209-8.559-4.978-12.66-4.108l-8.152,1.655   c-9.514,1.897-19.357,3.851-28.557,7.688c-30.69,12.838-56.694,32.851-77.284,59.496c-1.127,1.469-2.154,3.01-3.181,4.565   l-0.97,1.455c-13.451,19.856-13.808,37.387-1.091,53.605c2.618,3.338,4.843,6.99,7.075,10.627c1.113,1.812,2.225,3.623,3.374,5.406   c0.913,1.398,3.538,2.511,5.199,2.753c0.285,0.043,0.571,0.071,0.856,0.071c1.662,0,3.267-0.713,4.386-1.983l6.583-7.346   c5.107-5.634,10.213-11.283,14.899-17.246l2.382-2.938c7.738-9.429,5.677-12.781-2.625-22.666   c-4.194-5.007-3.595-8.33-1.255-12.082c3.63-5.834,6.968-11.012,11.091-15.206c10.163-10.342,23.365-17.731,39.234-21.967   c2.81-0.77,5.806-1.697,6.583-1.598c0.727,0.485,2.539,3.224,4.329,5.934l1.027,1.526c0.749,1.084,1.505,2.168,2.118,3.338   c3.202,6.005,9.058,7.959,15.277,5.107l35.654-16.361c1.833-0.827,3.252-3.709,3.509-5.706c0.221-1.683-0.3-3.381-1.426-4.636   L450.872,179.401z M414.712,202.894c-0.82-1.555-1.812-3.024-2.81-4.479l-0.963-1.426c-7.696-11.64-10.335-12.681-23.643-9.129   c-17.909,4.793-32.894,13.223-44.54,25.077c-4.957,5.035-8.83,11.026-12.681,17.217c-5.485,8.801-4.736,17.474,2.839,26.503   c1.483,1.769,3.003,3.58,3.787,4.679c-0.485,0.656-1.198,1.526-1.854,2.325l-2.539,3.138c-4.522,5.749-9.45,11.183-14.371,16.618   l-2.09,2.325c-2.368-3.851-4.764-7.688-7.532-11.226c-9.557-12.182-9.086-24.092,1.576-39.84l1.048-1.569   c0.856-1.312,1.712-2.61,2.667-3.851c19.342-25.02,43.749-43.82,72.541-55.859c8.124-3.395,16.967-5.149,26.332-7.004l8.138-1.683   c0.007,0,0.014,0,0.021,0c0.485,0,1.548,0.399,1.862,0.656c6.683,7.132,13.145,14.45,19.613,21.767l1.997,2.254L414.712,202.894z"/><path d="M423.385,316.181H308.657c-3.224,0-5.841,2.625-5.841,5.848c0,3.224,2.618,5.848,5.841,5.848h114.728   c3.224,0,5.841-2.625,5.841-5.848C429.226,318.806,426.608,316.181,423.385,316.181z"/><path d="M423.385,345.979H308.657c-3.224,0-5.841,2.625-5.841,5.848c0,3.224,2.618,5.848,5.841,5.848h114.728   c3.224,0,5.841-2.625,5.841-5.848C429.226,348.604,426.608,345.979,423.385,345.979z"/><path d="M389.535,375.778h-80.879c-3.224,0-5.841,2.625-5.841,5.848s2.618,5.848,5.841,5.848h80.879   c3.224,0,5.841-2.625,5.841-5.848S392.759,375.778,389.535,375.778z"/><path d="M228.798,375.778h-90.265c-3.224,0-5.841,2.625-5.841,5.848s2.618,5.848,5.841,5.848h90.265   c3.224,0,5.841-2.625,5.841-5.848S232.022,375.778,228.798,375.778z"/></g><text x="0" y="527" fill="#000000" font-size="5px" font-weight="bold" font-family="'Helvetica Neue', Helvetica, Arial-Unicode, Arial, Sans-serif">Created by Shakeel Ch.</text><text x="0" y="532" fill="#000000" font-size="5px" font-weight="bold" font-family="'Helvetica Neue', Helvetica, Arial-Unicode, Arial, Sans-serif">from the Noun Project</text></svg>