<?xml version="1.0" encoding="UTF-8"?>
<svg xmlns="http://www.w3.org/2000/svg" xmlns:xlink="http://www.w3.org/1999/xlink" width="375pt" height="374.999991pt" viewBox="0 0 375 374.999991" version="1.2">
<defs>
<clipPath id="clip1">
  <path d="M 45.714844 153 L 246 153 L 246 374.949219 L 45.714844 374.949219 Z M 45.714844 153 "/>
</clipPath>
<clipPath id="clip2">
  <path d="M 211 150 L 337.441406 150 L 337.441406 359 L 211 359 Z M 211 150 "/>
</clipPath>
</defs>
<g id="surface1">
<path style=" stroke:none;fill-rule:nonzero;fill:rgb(0%,70.588684%,54.119873%);fill-opacity:1;" d="M 160.15625 164.75 C 162.800781 163.882812 165.375 162.726562 168.488281 162.550781 C 168.164062 163.410156 168 164.046875 167.695312 164.609375 C 164.738281 170.140625 162.542969 175.980469 160.796875 181.984375 C 159.113281 187.78125 156.875 193.367188 154.605469 198.949219 C 151.253906 207.1875 148.710938 215.671875 146.863281 224.371094 C 146.367188 226.71875 145.824219 229.054688 145.015625 231.402344 C 144.988281 230.527344 144.90625 229.644531 144.945312 228.773438 C 145.128906 224.613281 145.453125 220.46875 146.289062 216.375 C 146.570312 214.984375 146.652344 213.550781 146.914062 212.15625 C 148.003906 206.347656 148.976562 200.511719 150.292969 194.753906 C 151.121094 191.136719 152.460938 187.636719 153.609375 184.09375 C 155.570312 178.054688 157.5625 172.023438 159.550781 165.992188 C 159.6875 165.589844 159.925781 165.21875 160.15625 164.75 Z M 160.15625 164.75 "/>
<g clip-path="url(#clip1)" clip-rule="nonzero">
<path style=" stroke:none;fill-rule:nonzero;fill:rgb(0%,70.588684%,54.119873%);fill-opacity:1;" d="M 116.203125 240.648438 C 115.222656 241 115.007812 241.925781 114.816406 242.738281 C 113.300781 249.242188 111.664062 255.722656 110.40625 262.277344 C 109.421875 267.433594 108.925781 272.679688 108.195312 277.882812 C 108.027344 279.074219 107.78125 280.253906 107.589844 281.4375 C 107.3125 283.167969 107.035156 284.898438 106.78125 286.628906 C 106.574219 288.039062 106.40625 289.453125 106.207031 290.863281 C 105.699219 294.4375 105.1875 298.011719 104.675781 301.585938 C 104.523438 302.671875 104.4375 303.769531 104.203125 304.835938 C 102.730469 311.476562 101.914062 318.21875 100.839844 324.925781 C 99.871094 330.976562 98.605469 336.988281 97.730469 343.054688 C 97.015625 348.03125 96.652344 353.066406 96.183594 358.078125 C 96.019531 359.824219 95.816406 361.546875 95.257812 363.152344 C 91.613281 364.441406 88.273438 364.042969 85.535156 362.039062 C 85.269531 361.84375 85.007812 361.636719 84.765625 361.417969 C 81.429688 358.394531 77.417969 357.21875 73.007812 357.085938 C 71.371094 357.035156 69.699219 357.046875 68.105469 356.738281 C 64.8125 356.097656 61.980469 354.390625 59.394531 352.335938 C 56.570312 350.085938 53.859375 347.71875 51.722656 344.730469 C 50.855469 343.519531 49.5 342.644531 48.335938 341.65625 C 47.515625 340.960938 46.636719 340.332031 45.714844 339.617188 C 46.175781 337.980469 46.535156 336.496094 47.015625 335.050781 C 48.15625 331.621094 49.425781 328.234375 50.511719 324.789062 C 51.957031 320.199219 53.214844 315.554688 54.667969 310.96875 C 55.851562 307.214844 57.1875 303.507812 58.480469 299.789062 C 59.558594 296.6875 60.570312 293.558594 61.796875 290.515625 C 64.054688 284.917969 65.695312 279.128906 67.507812 273.390625 C 69.054688 268.488281 71.011719 263.714844 72.851562 258.90625 C 73.984375 255.941406 75.011719 252.902344 76.480469 250.105469 C 78.890625 245.519531 80.4375 240.617188 82.289062 235.820312 C 83.273438 233.269531 84.34375 230.75 85.292969 228.183594 C 87.71875 221.613281 90.050781 215.007812 92.527344 208.453125 C 93.453125 205.996094 94.632812 203.636719 95.757812 201.261719 C 98.433594 195.625 101.277344 190.0625 103.808594 184.359375 C 105.851562 179.761719 107.554688 175.023438 108.847656 170.128906 C 110.1875 165.050781 111.832031 160.054688 113.363281 155.027344 C 113.878906 153.332031 114.25 153.019531 115.929688 153.144531 C 118.433594 153.328125 120.972656 153.3125 123.359375 154.15625 C 123.523438 154.339844 123.738281 154.476562 123.792969 154.664062 C 125.214844 159.488281 126.621094 164.320312 128.035156 169.148438 C 128.578125 171.011719 128.324219 172.738281 127.613281 174.574219 C 125.632812 179.679688 123.40625 184.679688 121.3125 189.734375 C 119.296875 194.597656 116.945312 199.292969 114.835938 204.105469 C 112.988281 208.316406 111.183594 212.546875 109.28125 216.734375 C 107.789062 220.023438 106.050781 223.203125 104.644531 226.527344 C 101.066406 235.003906 97.664062 243.550781 94.089844 252.027344 C 90.382812 260.808594 86.886719 269.667969 83.675781 278.644531 C 82.941406 280.699219 81.910156 282.65625 80.949219 284.621094 C 79.101562 288.394531 78.257812 292.484375 77.109375 296.476562 C 77.003906 296.84375 77.09375 297.265625 77.09375 297.734375 C 78.007812 297.398438 77.980469 296.640625 78.214844 296.082031 C 79.367188 293.363281 80.304688 290.539062 81.625 287.90625 C 84.128906 282.894531 86.199219 277.714844 88.039062 272.433594 C 90.523438 265.292969 93.429688 258.324219 96.425781 251.382812 C 99.417969 244.449219 102.082031 237.371094 104.902344 230.363281 C 105.558594 228.738281 106.179688 227.085938 106.992188 225.539062 C 110.257812 219.328125 113.015625 212.882812 115.773438 206.4375 C 117.152344 203.21875 118.773438 200.105469 120.203125 196.90625 C 121.765625 193.40625 123.261719 189.878906 124.742188 186.34375 C 126.386719 182.402344 128.0625 178.472656 129.578125 174.480469 C 130.710938 171.496094 132.875 169.996094 135.863281 169.359375 C 139.179688 168.652344 142.464844 167.8125 145.792969 167.179688 C 149.421875 166.484375 153.050781 165.6875 156.769531 165.550781 C 156.875 167.269531 156.667969 168.457031 156.171875 170.023438 C 154.324219 175.867188 152.503906 181.722656 150.679688 187.574219 C 150.125 189.351562 149.570312 191.128906 149.042969 192.914062 C 148.640625 194.28125 148.183594 195.640625 147.925781 197.03125 C 146.605469 204.136719 145.296875 211.246094 144.085938 218.367188 C 143.59375 221.277344 143.265625 224.226562 143.007812 227.171875 C 142.21875 236.121094 141.394531 245.066406 140.792969 254.027344 C 140.394531 259.925781 140.363281 265.851562 140.179688 271.761719 C 140.175781 271.953125 140.34375 272.148438 140.539062 272.582031 C 142.023438 262.367188 142.332031 252.25 143.472656 242.105469 C 153.816406 246.742188 155.578125 247.320312 158.691406 247.113281 C 159.757812 246.035156 160.085938 244.507812 160.632812 243.097656 C 162.175781 239.117188 163.753906 235.15625 165.230469 231.152344 C 167.582031 224.792969 170.398438 218.578125 171.660156 211.859375 C 172.871094 205.40625 173.976562 198.929688 175.144531 192.464844 C 175.472656 190.636719 175.851562 188.816406 176.21875 186.996094 C 176.234375 186.917969 176.378906 186.867188 176.550781 186.742188 C 176.550781 191.453125 176.644531 196.101562 176.53125 200.746094 C 176.367188 207.316406 175.949219 213.878906 175.835938 220.449219 C 175.683594 229.429688 175.691406 238.417969 175.679688 247.398438 C 175.675781 251.011719 175.789062 254.625 175.894531 258.238281 C 175.9375 259.628906 176.089844 261.019531 176.984375 262.316406 C 177.039062 261.855469 177.140625 261.394531 177.144531 260.933594 C 177.1875 252.277344 177.226562 243.625 177.253906 234.96875 C 177.265625 231.140625 177.242188 227.316406 177.25 223.488281 C 177.25 222.617188 177.242188 221.734375 177.367188 220.871094 C 177.917969 216.953125 177.992188 213.011719 177.933594 209.0625 C 177.917969 208.078125 177.972656 207.09375 178.019531 206.109375 C 178.164062 203.15625 178.433594 200.203125 178.457031 197.25 C 178.511719 190.449219 178.941406 183.675781 179.542969 176.90625 C 179.765625 174.394531 179.753906 171.867188 179.945312 169.355469 C 180.097656 167.402344 180.40625 165.457031 180.617188 163.730469 C 182.226562 162.164062 184.019531 161.726562 185.808594 161.183594 C 187.140625 162.648438 187.320312 164.386719 187.453125 166.132812 C 187.773438 170.390625 187.90625 174.671875 188.445312 178.902344 C 189.136719 184.328125 189.867188 189.78125 191.082031 195.109375 C 193.363281 205.140625 196.015625 215.085938 198.480469 225.078125 C 200.238281 232.195312 202.1875 239.273438 202.828125 246.621094 C 202.976562 248.3125 203.757812 249.757812 205.042969 251.117188 C 207.039062 251.871094 209.238281 251.695312 211.347656 251.136719 C 215.828125 249.953125 219.957031 247.984375 223.636719 245.171875 C 224.0625 243.21875 223.6875 241.390625 223.496094 239.542969 C 223.320312 237.804688 223.304688 236.054688 223.574219 234.207031 C 223.816406 234.859375 224.121094 235.492188 224.296875 236.160156 C 227.046875 246.769531 229.378906 257.464844 231.523438 268.210938 C 233.566406 278.421875 235.078125 288.714844 236.800781 298.976562 C 237.542969 303.402344 237.980469 307.878906 238.632812 312.320312 C 239.140625 315.785156 239.785156 319.230469 240.332031 322.691406 C 241.15625 327.882812 241.925781 333.085938 242.753906 338.273438 C 243.515625 343.03125 244.332031 347.777344 245.109375 352.527344 C 245.371094 354.148438 245.550781 355.785156 245.839844 357.398438 C 246.105469 358.894531 245.5 360.015625 244.351562 360.800781 C 241.164062 362.980469 237.773438 364.734375 233.867188 365.222656 C 232.5625 365.390625 231.25 365.488281 229.949219 365.660156 C 227.230469 366.019531 224.566406 366.496094 222.039062 367.707031 C 219.574219 368.890625 216.96875 369.714844 214.199219 370.019531 C 210.609375 370.417969 207.039062 370.976562 203.46875 371.523438 C 200.660156 371.953125 197.863281 372.484375 195.054688 372.925781 C 193.128906 373.230469 191.261719 373.886719 189.214844 373.460938 C 188.328125 373.277344 187.28125 373.710938 186.339844 373.988281 C 184.097656 374.648438 181.835938 374.835938 179.515625 374.578125 C 174.621094 374.042969 169.714844 373.570312 164.820312 373.03125 C 163.519531 372.886719 162.191406 372.726562 160.949219 372.335938 C 158.886719 371.6875 156.859375 371.667969 154.796875 372.199219 C 151.09375 373.15625 147.691406 372.117188 144.257812 370.761719 C 144.175781 370.253906 144.011719 369.824219 144.050781 369.410156 C 144.402344 365.460938 144.089844 361.539062 143.785156 357.601562 C 143.078125 348.542969 142.367188 339.480469 142.1875 330.386719 C 142.101562 325.917969 141.742188 321.453125 141.503906 316.9375 C 140.851562 317.089844 141.09375 317.703125 141.089844 318.117188 C 141 325.34375 140.804688 332.570312 140.914062 339.796875 C 140.980469 344.390625 141.582031 348.972656 141.808594 353.566406 C 142.050781 358.589844 142.148438 363.625 142.273438 368.65625 C 142.285156 369.164062 142.042969 369.675781 141.90625 370.242188 C 137.847656 370.4375 133.929688 370.660156 130.011719 370.792969 C 129.039062 370.828125 128.035156 370.695312 127.089844 370.457031 C 124.859375 369.894531 122.585938 369.402344 120.46875 368.539062 C 118.566406 367.769531 116.847656 366.542969 114.972656 365.476562 C 114.910156 364.65625 114.769531 363.90625 114.808594 363.167969 C 115.050781 358.792969 115.523438 354.421875 115.558594 350.050781 C 115.601562 344.667969 116.480469 339.367188 116.738281 334.007812 C 116.808594 332.484375 117.167969 330.972656 117.363281 329.453125 C 118.195312 323.046875 119.019531 316.640625 119.828125 310.230469 C 119.878906 309.832031 119.773438 309.410156 119.683594 308.269531 C 119.253906 309.898438 118.96875 310.804688 118.785156 311.726562 C 117.324219 319.027344 115.671875 326.304688 114.855469 333.710938 C 114.351562 338.273438 114.210938 342.878906 113.964844 347.46875 C 113.710938 352.277344 113.53125 357.09375 113.300781 361.90625 C 113.277344 362.445312 113.132812 362.980469 113.015625 363.691406 C 108.351562 365.128906 103.703125 365.886719 98.941406 364.097656 C 97.898438 363.707031 97.324219 362.992188 97.382812 361.867188 C 97.472656 360.117188 97.546875 358.363281 97.722656 356.617188 C 98.054688 353.347656 98.445312 350.085938 98.839844 346.824219 C 98.984375 345.628906 99.148438 344.429688 99.414062 343.257812 C 101.179688 335.449219 102.234375 327.527344 103.332031 319.613281 C 103.800781 316.253906 104.449219 312.917969 105.078125 309.582031 C 106.050781 304.414062 106.902344 299.242188 107.363281 293.992188 C 107.71875 289.972656 108.628906 286.003906 109.289062 282.011719 C 109.570312 280.289062 109.886719 278.566406 110.105469 276.832031 C 110.691406 272.160156 111.234375 267.484375 111.796875 262.808594 C 111.824219 262.59375 111.863281 262.375 111.90625 262.160156 C 113.050781 256.59375 114.207031 251.027344 115.339844 245.457031 C 115.664062 243.855469 115.929688 242.242188 116.226562 240.636719 C 116.1875 240.425781 116.152344 240.222656 116.113281 240.015625 C 116.144531 240.226562 116.175781 240.4375 116.203125 240.648438 Z M 186.480469 368.253906 C 186.777344 365.097656 186.25 362.09375 185.511719 359.148438 C 183.703125 351.925781 182.660156 344.574219 181.636719 337.222656 C 181.023438 332.789062 180.78125 328.304688 180.296875 323.851562 C 179.996094 321.070312 179.832031 318.25 178.695312 315.601562 C 178.46875 316.214844 178.402344 316.8125 178.425781 317.402344 C 178.871094 327.570312 180.035156 337.652344 181.957031 347.644531 C 183.171875 353.972656 184.484375 360.28125 185.785156 366.59375 C 185.902344 367.171875 186.242188 367.703125 186.480469 368.253906 Z M 118.195312 233.707031 L 118.308594 233.53125 L 118.15625 233.492188 Z M 117.597656 235.398438 L 117.46875 235.609375 L 117.644531 235.648438 Z M 116.8125 237.554688 L 116.90625 237.765625 L 116.980469 237.542969 Z M 116.8125 237.554688 "/>
</g>
<path style=" stroke:none;fill-rule:nonzero;fill:rgb(0%,70.588684%,54.119873%);fill-opacity:1;" d="M 149.195312 126.863281 C 149.710938 128.859375 150.25 130.847656 150.734375 132.851562 C 151.453125 135.84375 152.492188 138.707031 153.898438 141.445312 C 154.230469 142.089844 154.316406 142.859375 154.574219 143.789062 C 153.839844 143.875 153.308594 144.054688 152.828125 143.96875 C 150.347656 143.519531 147.855469 143.113281 145.421875 142.476562 C 142.996094 141.839844 140.628906 140.964844 138.246094 140.160156 C 136.820312 139.679688 135.8125 138.757812 135.34375 137.269531 C 134.382812 134.242188 133.261719 131.265625 132.421875 128.207031 C 130.3125 120.5 128.320312 112.761719 126.269531 105.039062 C 126.132812 104.527344 125.910156 104.042969 125.699219 103.484375 C 124.910156 103.878906 125.183594 104.453125 125.277344 104.871094 C 125.890625 107.539062 126.585938 110.183594 127.183594 112.855469 C 127.972656 116.375 128.765625 119.902344 129.4375 123.445312 C 130.152344 127.222656 131.15625 130.914062 132.398438 134.546875 C 132.671875 135.339844 133.128906 136.144531 132.65625 137.140625 C 130.46875 136.261719 128.359375 135.414062 126.25 134.570312 C 125.4375 134.242188 124.648438 133.753906 123.808594 133.628906 C 122.09375 133.375 121.074219 132.269531 120.269531 130.957031 C 119.296875 129.375 118.355469 127.742188 117.652344 126.027344 C 115.117188 119.855469 112.359375 113.769531 110.566406 107.300781 C 109.546875 103.613281 108.121094 100.039062 106.894531 96.410156 C 106.648438 95.6875 106.46875 94.9375 106.261719 94.199219 C 105.933594 93.027344 106.199219 92.050781 107.179688 91.28125 C 107.695312 90.875 108.15625 90.394531 108.683594 90.007812 C 112.757812 87.027344 114.570312 82.804688 115.332031 77.996094 C 116.027344 73.609375 115.585938 69.242188 114.933594 64.917969 C 113.738281 56.988281 111.472656 49.328125 108.730469 41.796875 C 108.023438 39.847656 107.53125 37.820312 106.988281 35.816406 C 106.359375 33.496094 105.820312 31.152344 105.164062 28.84375 C 104.808594 27.597656 105.125 26.546875 106.164062 25.992188 C 109.550781 24.1875 112.292969 21.359375 115.917969 19.957031 C 117.03125 19.523438 118.140625 19.089844 119.308594 18.636719 C 121.140625 20.472656 122.097656 22.683594 123.050781 24.867188 C 124.804688 28.878906 126.441406 32.941406 128.167969 36.96875 C 130.457031 42.296875 132.757812 47.621094 135.121094 52.917969 C 135.648438 54.105469 136.378906 55.222656 137.132812 56.285156 C 137.753906 57.152344 138.40625 58.117188 139.789062 57.769531 C 140.046875 57.703125 140.410156 57.929688 140.6875 58.089844 C 144.277344 60.171875 148.285156 60.914062 152.304688 61.371094 C 156.101562 61.800781 159.949219 61.84375 163.78125 61.972656 C 168.265625 62.128906 172.746094 62.234375 177.230469 62.445312 C 184.335938 62.785156 191.476562 62.652344 198.484375 61.097656 C 199.753906 60.816406 200.96875 60.273438 202.195312 59.824219 C 202.707031 59.640625 203.210938 59.164062 203.683594 59.203125 C 205.574219 59.371094 206.589844 57.785156 207.996094 57.054688 C 208.8125 56.628906 209.339844 55.347656 209.679688 54.339844 C 211.425781 49.15625 213.042969 43.925781 214.753906 38.730469 C 216.914062 32.183594 218.769531 25.53125 221.496094 19.179688 C 222.273438 17.375 223.203125 15.628906 224.132812 13.894531 C 224.488281 13.234375 225.035156 12.675781 225.546875 12 C 228.289062 12.8125 230.199219 14.9375 232.652344 16.105469 C 235.117188 17.273438 237.527344 18.558594 239.875 19.746094 C 240.382812 21.113281 240.070312 22.277344 239.800781 23.449219 C 238.605469 28.675781 237.285156 33.878906 236.269531 39.144531 C 235.605469 42.574219 235.34375 46.089844 234.992188 49.574219 C 234.792969 51.53125 234.808594 53.511719 234.664062 55.476562 C 234.066406 63.480469 235.558594 71.175781 238.066406 78.71875 C 238.90625 81.234375 240.246094 83.496094 241.929688 85.546875 C 242.417969 86.136719 242.898438 86.738281 243.421875 87.296875 C 244.242188 88.175781 244.542969 89.144531 244.136719 90.3125 C 243.707031 91.550781 243.421875 92.855469 242.863281 94.035156 C 240.929688 98.113281 239.652344 102.402344 238.414062 106.726562 C 237 111.671875 235.300781 116.53125 233.75 121.433594 C 232.691406 124.777344 231.648438 128.121094 230.664062 131.484375 C 230.425781 132.296875 230.4375 133.183594 230.328125 134.09375 C 227.613281 136.097656 224.40625 136.71875 221.347656 137.40625 C 220.253906 136.597656 220.757812 135.679688 220.734375 134.855469 C 220.71875 134.261719 221.21875 133.554688 220.363281 133.144531 C 220.1875 133.230469 219.914062 133.273438 219.863281 133.402344 C 219.582031 134.109375 219.230469 134.824219 219.128906 135.570312 C 218.847656 137.695312 217.703125 138.921875 215.613281 139.320312 C 212.4375 139.921875 209.738281 141.6875 206.824219 142.925781 C 205.113281 143.648438 203.394531 144.367188 201.65625 145.023438 C 201.070312 145.242188 200.40625 145.253906 199.648438 145.382812 C 199.351562 144.285156 199.933594 143.558594 200.34375 142.875 C 201.03125 141.71875 201.410156 140.542969 201.523438 139.1875 C 201.640625 137.792969 202.011719 136.394531 202.441406 135.054688 C 204.503906 128.589844 206.933594 122.238281 208.332031 115.574219 C 208.710938 113.753906 209.148438 111.933594 209.339844 110.089844 C 210.019531 103.527344 211.425781 97.132812 213.597656 90.90625 C 213.761719 90.4375 213.738281 89.90625 213.632812 89.363281 C 212.296875 91.660156 211.394531 94.113281 210.578125 96.59375 C 209.136719 100.976562 208.382812 105.515625 207.488281 110.027344 C 206.335938 115.828125 204.789062 121.53125 202.78125 127.105469 C 200.8125 132.566406 198.921875 138.054688 196.976562 143.523438 C 196.574219 144.648438 196.074219 145.734375 195.589844 146.90625 C 194.261719 147.300781 193.023438 147.695312 191.765625 148.027344 C 190.792969 148.28125 189.824219 148.386719 189.023438 147.523438 C 188.398438 146.851562 187.644531 146.953125 186.910156 147.304688 C 186.417969 147.542969 185.945312 147.828125 185.484375 148.113281 C 184.695312 148.601562 183.917969 148.621094 182.984375 148.460938 C 180.949219 148.109375 178.875 147.9375 176.8125 147.789062 C 176.3125 147.753906 175.699219 147.96875 175.296875 148.28125 C 174.101562 149.203125 172.816406 149.015625 171.523438 148.714844 C 170.140625 148.394531 168.769531 148.007812 167.402344 147.625 C 164.664062 146.855469 161.949219 146.007812 159.191406 145.316406 C 157.808594 144.96875 156.855469 144.242188 156.15625 143.039062 C 154.179688 139.613281 152.464844 136.078125 151.328125 132.277344 C 150.917969 130.917969 150.527344 129.550781 150.054688 128.210938 C 149.882812 127.726562 149.492188 127.320312 149.199219 126.878906 C 149.199219 126.332031 149.199219 125.785156 149.199219 125.238281 C 149.152344 125.242188 149.105469 125.246094 149.058594 125.25 C 149.109375 125.785156 149.152344 126.324219 149.195312 126.863281 Z M 124.859375 100.609375 L 124.808594 100.371094 L 124.757812 100.5625 Z M 124.859375 100.609375 "/>
<g clip-path="url(#clip2)" clip-rule="nonzero">
<path style=" stroke:none;fill-rule:nonzero;fill:rgb(0%,70.588684%,54.119873%);fill-opacity:1;" d="M 271.074219 288.15625 C 270.882812 286.867188 270.824219 285.535156 270.472656 284.289062 C 268.035156 275.648438 265.683594 266.980469 262.585938 258.542969 C 261.003906 254.226562 259.230469 249.980469 257.644531 245.667969 C 255.945312 241.046875 254.335938 236.390625 252.734375 231.734375 C 249.847656 223.351562 246.746094 215.046875 243.476562 206.800781 C 240.53125 199.367188 237.824219 191.835938 235 184.355469 C 234.183594 182.203125 233.332031 180.066406 232.484375 177.929688 C 231.714844 175.992188 231.113281 173.960938 230.09375 172.167969 C 229.070312 170.367188 229.699219 168.28125 228.894531 166.402344 C 229.117188 166.675781 229.394531 166.917969 229.558594 167.222656 C 231.1875 170.199219 232.742188 173.214844 234.421875 176.164062 C 236.261719 179.398438 238.171875 182.59375 240.121094 185.765625 C 246.316406 195.859375 253.070312 205.566406 260.390625 214.875 C 263.246094 218.5 265.699219 222.386719 268.121094 226.296875 C 270.3125 229.839844 272.441406 233.417969 274.507812 237.03125 C 276.84375 241.113281 279.21875 245.1875 281.339844 249.386719 C 285.136719 256.910156 289.183594 264.3125 292.402344 272.128906 C 294.109375 276.273438 296.1875 280.265625 297.964844 284.382812 C 299.480469 287.898438 300.726562 291.53125 302.246094 295.042969 C 303.246094 297.351562 304.4375 299.585938 305.699219 301.761719 C 306.808594 303.671875 307.605469 305.648438 307.789062 307.851562 C 308.507812 308.003906 308.539062 307.488281 308.457031 307.09375 C 308.105469 305.390625 307.765625 303.675781 307.273438 302.007812 C 306.9375 300.859375 306.445312 299.730469 305.878906 298.675781 C 303.421875 294.125 301.859375 289.203125 299.921875 284.4375 C 298.890625 281.90625 297.722656 279.425781 296.59375 276.933594 C 294.738281 272.851562 292.957031 268.730469 290.980469 264.703125 C 287.703125 258.023438 284.347656 251.378906 280.921875 244.773438 C 279.058594 241.175781 277.082031 237.632812 275.003906 234.15625 C 271.796875 228.796875 268.5625 223.449219 265.136719 218.234375 C 262.734375 214.574219 260.023438 211.117188 257.402344 207.605469 C 251.035156 199.085938 245.085938 190.28125 239.582031 181.1875 C 237.027344 176.976562 234.652344 172.65625 232.21875 168.371094 C 231.796875 167.625 231.484375 166.824219 231.042969 165.875 C 231.761719 165.566406 232.316406 165.230469 232.917969 165.089844 C 233.65625 164.921875 234.441406 164.984375 235.1875 164.832031 C 236 164.667969 236.609375 163.945312 236.394531 163.140625 C 235.597656 160.136719 235.773438 157.074219 235.652344 154.023438 C 235.632812 153.5 235.386719 152.984375 235.234375 152.417969 C 235.929688 151.375 237.007812 151.292969 238.160156 150.921875 C 238.617188 151.953125 239.015625 152.832031 239.398438 153.722656 C 242.148438 160.160156 244.785156 166.648438 247.675781 173.023438 C 249.984375 178.117188 253.140625 182.757812 255.996094 187.554688 C 260.363281 194.894531 264.628906 202.296875 268.882812 209.703125 C 272.757812 216.445312 276.574219 223.222656 280.386719 230 C 283.019531 234.679688 285.496094 239.445312 288.226562 244.0625 C 291.511719 249.617188 294.542969 255.328125 298.378906 260.554688 C 299.667969 262.316406 300.679688 264.277344 301.796875 266.164062 C 306.203125 273.609375 310.628906 281.042969 314.992188 288.515625 C 317.09375 292.109375 319.078125 295.769531 321.097656 299.410156 C 325.765625 307.84375 330.433594 316.273438 335.078125 324.722656 C 335.914062 326.246094 336.617188 327.839844 337.449219 329.535156 C 335.441406 331.105469 333.574219 332.5 331.078125 332.90625 C 329.574219 333.148438 328.101562 333.644531 326.65625 334.144531 C 319.835938 336.5 312.804688 338.320312 306.488281 341.984375 C 305.355469 342.640625 304.144531 343.167969 302.941406 343.695312 C 302.140625 344.046875 301.3125 344.4375 300.464844 344.546875 C 295.476562 345.179688 290.597656 346.492188 285.550781 346.828125 C 283.289062 346.976562 281.03125 347.644531 278.839844 348.296875 C 274.652344 349.546875 270.628906 351.269531 266.390625 352.433594 C 263.035156 353.355469 259.828125 354.867188 256.632812 356.292969 C 254.113281 357.417969 251.550781 358.210938 248.871094 358.539062 C 247.328125 357.300781 247.308594 355.515625 247.027344 353.980469 C 245.683594 346.660156 244.507812 339.304688 243.273438 331.964844 C 242.316406 326.246094 241.34375 320.527344 240.410156 314.804688 C 240.113281 312.96875 239.949219 311.113281 239.691406 309.265625 C 238.890625 303.515625 238.082031 297.765625 237.265625 292.019531 C 236.585938 287.246094 235.933594 282.46875 235.175781 277.710938 C 234.746094 275.011719 234.125 272.339844 233.582031 269.660156 C 232.335938 263.546875 231.125 257.421875 229.824219 251.320312 C 228.910156 247.039062 227.898438 242.773438 226.878906 238.515625 C 225.503906 232.765625 223.96875 227.046875 222.695312 221.273438 C 221.230469 214.644531 219.976562 207.96875 218.628906 201.3125 C 217.324219 194.875 216.027344 188.433594 214.714844 181.996094 C 213.949219 178.238281 213.113281 174.5 212.394531 170.738281 C 212.03125 168.828125 211.859375 166.886719 211.605469 165.003906 C 211.875 164.847656 212.070312 164.632812 212.242188 164.652344 C 216.578125 165.113281 220.914062 165.601562 225.304688 166.085938 C 225.539062 166.476562 225.820312 166.820312 225.976562 167.210938 C 229.351562 175.765625 232.757812 184.304688 236.0625 192.886719 C 238.894531 200.242188 241.605469 207.644531 244.703125 214.902344 C 246.679688 219.527344 248.195312 224.347656 249.925781 229.074219 C 252.71875 236.679688 255.589844 244.261719 258.289062 251.898438 C 261.140625 259.953125 263.78125 268.078125 266.609375 276.136719 C 268.015625 280.152344 269.644531 284.09375 271.171875 288.066406 C 271.421875 288.484375 271.671875 288.898438 271.921875 289.320312 C 271.835938 289.929688 271.863281 290.5 272.4375 290.886719 C 272.566406 291.550781 272.566406 292.308594 273.53125 292.339844 C 273.425781 292.578125 273.332031 292.800781 273.234375 293.023438 C 273.265625 293.035156 273.296875 293.050781 273.328125 293.0625 C 273.398438 292.832031 273.464844 292.597656 273.535156 292.367188 C 273.140625 291.898438 272.75 291.433594 272.359375 290.964844 C 272.402344 290.367188 272.445312 289.773438 271.855469 289.382812 C 271.753906 288.875 271.765625 288.292969 271.074219 288.15625 Z M 236.070312 228.894531 C 235.851562 228.945312 235.632812 228.996094 235.410156 229.050781 C 235.574219 230.546875 235.648438 232.046875 236 233.535156 C 236.917969 237.46875 237.824219 241.410156 238.671875 245.359375 C 240.398438 253.371094 242.117188 261.386719 243.777344 269.414062 C 245.679688 278.625 247.5 287.847656 249.382812 297.0625 C 250.480469 302.417969 251.609375 307.769531 252.765625 313.113281 C 253.289062 315.539062 253.949219 317.933594 255.257812 320.890625 C 255.257812 319.726562 255.328125 319.289062 255.246094 318.886719 C 253.679688 311.171875 252.085938 303.460938 250.511719 295.746094 C 249.421875 290.390625 248.304688 285.039062 247.285156 279.667969 C 246.394531 274.945312 245.746094 270.171875 244.769531 265.46875 C 243.546875 259.582031 242.019531 253.757812 240.777344 247.875 C 239.671875 242.632812 238.457031 237.414062 237.050781 232.246094 C 236.746094 231.125 236.398438 230.011719 236.070312 228.894531 Z M 255.632812 322.484375 L 255.679688 322.703125 L 255.726562 322.527344 Z M 255.632812 322.484375 "/>
</g>
<path style=" stroke:none;fill-rule:nonzero;fill:rgb(0%,70.588684%,54.119873%);fill-opacity:1;" d="M 198.300781 162.160156 C 200.789062 162.101562 205.726562 163.125 208.429688 164.234375 C 210.070312 167.609375 211.007812 171.320312 211.785156 175.054688 C 213.003906 180.9375 214.074219 186.859375 215.179688 192.765625 C 216.445312 199.527344 217.679688 206.296875 218.917969 213.0625 C 218.972656 213.371094 218.925781 213.695312 218.925781 214.671875 C 218.425781 213.367188 218.117188 212.683594 217.898438 211.96875 C 216.148438 206.214844 214.414062 200.457031 212.683594 194.699219 C 211.363281 190.304688 210.097656 185.890625 208.726562 181.507812 C 207.945312 179.011719 207.144531 176.5 206.105469 174.105469 C 204.890625 171.304688 203.515625 168.566406 201.230469 166.40625 C 200.363281 165.585938 199.648438 164.589844 198.9375 163.625 C 198.640625 163.230469 198.527344 162.699219 198.300781 162.160156 Z M 198.300781 162.160156 "/>
<path style=" stroke:none;fill-rule:nonzero;fill:rgb(44.709778%,77.648926%,65.489197%);fill-opacity:1;" d="M 174.46875 156.957031 C 175.714844 159.507812 176.199219 161.652344 177.621094 163.390625 C 178.113281 163.988281 177.945312 165.296875 177.785156 166.230469 C 177.324219 168.925781 176.65625 171.585938 176.179688 174.28125 C 174.945312 181.28125 173.828125 188.308594 172.550781 195.300781 C 171.429688 201.4375 170.273438 207.570312 168.910156 213.652344 C 168 217.707031 166.476562 221.582031 164.898438 225.441406 C 162.707031 230.808594 160.804688 236.289062 158.769531 241.71875 C 158.355469 242.824219 158.164062 244.035156 157.257812 245.113281 C 156.3125 244.898438 155.347656 244.757812 154.433594 244.453125 C 152.359375 243.765625 150.285156 243.058594 148.253906 242.246094 C 146.359375 241.488281 146.078125 240.988281 146.367188 238.972656 C 146.804688 235.9375 147.285156 232.910156 147.84375 229.898438 C 150.078125 217.796875 153.628906 206.097656 158.316406 194.707031 C 160.269531 189.960938 161.621094 184.96875 163.273438 180.097656 C 164.816406 175.539062 166.488281 171.023438 168.765625 166.761719 C 169.75 164.925781 170.636719 163.039062 171.664062 161.234375 C 172.40625 159.925781 173.3125 158.703125 174.46875 156.957031 Z M 174.46875 156.957031 "/>
<path style=" stroke:none;fill-rule:nonzero;fill:rgb(44.709778%,77.648926%,65.489197%);fill-opacity:1;" d="M 129.746094 32.933594 C 131.046875 33.121094 131.902344 33.164062 132.71875 33.375 C 137.285156 34.550781 141.941406 35.230469 146.621094 35.652344 C 151.957031 36.136719 157.304688 36.421875 162.652344 36.761719 C 166.035156 36.976562 169.425781 37.113281 172.8125 37.3125 C 178.84375 37.675781 184.816406 37.425781 190.746094 36.0625 C 195.4375 34.984375 200.128906 34 204.632812 32.195312 C 207.261719 31.140625 210.058594 30.5 212.789062 29.71875 C 213.394531 29.542969 214.050781 29.542969 214.828125 29.441406 C 215.257812 30.804688 214.703125 31.945312 214.363281 33.015625 C 212.441406 39.058594 210.367188 45.058594 208.453125 51.105469 C 207.75 53.332031 206.46875 54.679688 204.382812 55.863281 C 200.539062 58.042969 196.417969 58.863281 192.183594 59.335938 C 186.410156 59.980469 180.617188 60.113281 174.808594 59.722656 C 171.644531 59.507812 168.464844 59.546875 165.289062 59.476562 C 162.335938 59.410156 159.386719 59.359375 156.433594 59.289062 C 150.445312 59.144531 144.742188 57.769531 139.246094 55.429688 C 138.347656 55.046875 137.820312 54.425781 137.441406 53.632812 C 136.40625 51.464844 135.289062 49.320312 134.441406 47.074219 C 132.902344 42.980469 131.523438 38.820312 130.097656 34.6875 C 129.960938 34.285156 129.925781 33.851562 129.746094 32.933594 Z M 129.746094 32.933594 "/>
<path style=" stroke:none;fill-rule:nonzero;fill:rgb(44.709778%,77.648926%,65.489197%);fill-opacity:1;" d="M 187.488281 155.128906 C 188.058594 155.65625 188.652344 156.113281 189.132812 156.664062 C 190.507812 158.226562 191.835938 159.824219 193.183594 161.40625 C 193.46875 161.738281 193.675781 162.210938 194.035156 162.394531 C 196.167969 163.480469 197.300781 165.566406 198.917969 167.164062 C 202.765625 170.964844 205.035156 175.664062 206.554688 180.75 C 208.523438 187.351562 210.390625 193.984375 212.289062 200.609375 C 214.09375 206.921875 215.980469 213.207031 217.640625 219.554688 C 218.828125 224.101562 219.828125 228.710938 220.675781 233.335938 C 221.210938 236.230469 221.320312 239.203125 221.59375 242.140625 C 221.667969 242.953125 221.367188 243.65625 220.660156 244.117188 C 217.164062 246.398438 213.574219 248.472656 209.347656 249.097656 C 206.851562 249.46875 205.441406 248.480469 204.949219 245.894531 C 204.644531 244.285156 204.539062 242.632812 204.21875 241.027344 C 203.601562 237.917969 202.953125 234.8125 202.214844 231.730469 C 200.941406 226.410156 199.621094 221.101562 198.261719 215.800781 C 196.824219 210.1875 195.214844 204.613281 193.875 198.976562 C 192.941406 195.042969 192.296875 191.039062 191.585938 187.054688 C 190.332031 180.042969 190.007812 172.933594 189.449219 165.84375 C 189.226562 163.023438 188.914062 160.179688 186.902344 157.871094 C 186.273438 157.144531 186.378906 157.042969 187.488281 155.128906 Z M 187.488281 155.128906 "/>
<path style=" stroke:none;fill-rule:nonzero;fill:rgb(44.709778%,77.648926%,65.489197%);fill-opacity:1;" d="M 231.964844 141.585938 C 232.707031 144.0625 232.835938 146.226562 232.777344 148.414062 C 232.75 149.511719 232.671875 150.605469 232.695312 151.699219 C 232.710938 152.34375 232.6875 153.117188 233.011719 153.613281 C 234.722656 156.226562 234.003906 159.101562 234.183594 162.054688 C 232.46875 162.585938 230.851562 163.132812 229.105469 163.246094 C 223.953125 163.574219 218.824219 163.496094 213.730469 162.5 C 210.402344 161.847656 207.0625 161.226562 203.710938 160.710938 C 201.296875 160.34375 199.066406 159.476562 196.839844 158.5625 C 195.507812 158.015625 194.398438 157.265625 193.550781 156.003906 C 192.574219 154.550781 191.242188 153.390625 189.527344 152.746094 C 189.21875 152.628906 188.882812 152.089844 188.894531 151.757812 C 188.910156 151.414062 189.269531 150.878906 189.589844 150.785156 C 191.261719 150.292969 192.949219 149.695312 194.667969 149.539062 C 199.121094 149.128906 203.546875 148.539062 207.941406 147.71875 C 210.191406 147.300781 212.40625 146.695312 214.640625 146.179688 C 215.8125 145.910156 216.976562 145.589844 218.164062 145.40625 C 220.78125 145.011719 223.238281 144.082031 225.71875 143.222656 C 227.664062 142.550781 229.59375 141.777344 231.964844 141.585938 Z M 231.964844 141.585938 "/>
<path style=" stroke:none;fill-rule:nonzero;fill:rgb(44.709778%,77.648926%,65.489197%);fill-opacity:1;" d="M 130.242188 169.320312 C 129.628906 167.292969 129.113281 165.519531 128.558594 163.757812 C 127.929688 161.777344 127.292969 159.796875 126.609375 157.832031 C 125.996094 156.066406 125.46875 154.300781 125.667969 152.375 C 125.839844 152.222656 125.980469 151.980469 126.160156 151.949219 C 128.746094 151.542969 131.324219 151.050781 133.925781 150.835938 C 134.957031 150.75 136.171875 151.078125 137.078125 151.601562 C 139.640625 153.085938 142.402344 152.960938 145.066406 152.523438 C 147.835938 152.070312 150.484375 151.925781 153.136719 152.902344 C 154.554688 153.421875 155.917969 153.203125 157.300781 152.6875 C 158.53125 152.226562 159.804688 151.882812 161.066406 151.523438 C 162.832031 151.015625 164.519531 151.066406 166.039062 152.285156 C 167.453125 153.421875 169.195312 153.699219 170.90625 154.066406 C 171.621094 154.21875 172.316406 154.453125 173.117188 154.679688 C 172.582031 156.398438 171.699219 157.492188 170.332031 158.375 C 167.507812 160.191406 164.367188 161.125 161.179688 161.894531 C 157.25 162.851562 153.261719 163.585938 149.296875 164.410156 C 144.582031 165.394531 139.847656 166.308594 135.15625 167.398438 C 133.59375 167.757812 132.136719 168.5625 130.242188 169.320312 Z M 130.242188 169.320312 "/>
<path style=" stroke:none;fill-rule:nonzero;fill:rgb(44.709778%,77.648926%,65.489197%);fill-opacity:1;" d="M 157.855469 149.769531 C 156.644531 150.820312 155.421875 151.144531 154.058594 150.921875 C 153.300781 150.796875 152.53125 150.679688 151.816406 150.414062 C 150.101562 149.777344 148.398438 149.894531 146.644531 150.242188 C 145.363281 150.492188 144.054688 150.65625 142.75 150.742188 C 141.324219 150.835938 139.953125 150.628906 138.613281 149.964844 C 136.410156 148.871094 134.136719 148.507812 131.621094 149.097656 C 129.511719 149.59375 127.277344 149.566406 125.089844 149.699219 C 124.152344 149.757812 123.410156 149.941406 122.957031 150.886719 C 122.808594 151.191406 122.253906 151.5 121.914062 151.472656 C 119.433594 151.261719 116.890625 151.6875 114.355469 150.828125 C 114.222656 149.117188 114.917969 147.59375 115.203125 146.027344 C 115.289062 145.554688 116.0625 145.054688 116.621094 144.863281 C 117.539062 144.546875 118.542969 144.476562 119.507812 144.285156 C 120.792969 144.027344 122.164062 143.964844 123.328125 143.4375 C 124.777344 142.785156 126.199219 142.503906 127.757812 142.558594 C 128.117188 142.574219 128.488281 142.222656 129.046875 141.941406 C 127.390625 140.320312 125.660156 140.273438 123.808594 140.84375 C 122.5625 141.230469 121.339844 141.703125 120.082031 142.042969 C 119.582031 142.179688 119.011719 142.066406 118.464844 142.066406 C 117.667969 141.292969 117.390625 140.433594 117.65625 139.378906 C 118.082031 137.699219 118.695312 136.964844 121.304688 135.21875 C 125.210938 136.929688 129.527344 137.898438 133.238281 140.304688 C 134.78125 141.300781 136.25 142.429688 138.21875 142.367188 C 142.242188 144.222656 146.5625 144.933594 150.875 145.691406 C 151.734375 145.839844 152.570312 146.128906 153.414062 146.355469 C 155.828125 146.992188 155.828125 146.992188 157.855469 149.769531 Z M 157.855469 149.769531 "/>
<path style=" stroke:none;fill-rule:nonzero;fill:rgb(44.709778%,77.648926%,65.489197%);fill-opacity:1;" d="M 206.1875 145.003906 C 209.914062 143.269531 213.53125 141.261719 217.742188 140.800781 C 218.265625 140.742188 218.894531 140.726562 219.28125 140.4375 C 220.738281 139.335938 222.484375 139.027344 224.160156 138.613281 C 226.523438 138.027344 228.695312 137.09375 230.785156 135.878906 C 232.351562 134.964844 232.378906 135.015625 234.59375 135.152344 C 235.613281 137.726562 236.746094 140.304688 236.886719 143.210938 C 236.941406 144.398438 237.332031 145.570312 237.46875 146.761719 C 237.625 148.167969 237.042969 148.832031 235.144531 149.492188 C 234.960938 149.019531 234.648438 148.550781 234.613281 148.0625 C 234.480469 146.320312 234.464844 144.570312 234.359375 142.828125 C 234.246094 140.984375 233.980469 139.179688 232.546875 137.832031 C 228.070312 140.203125 223.445312 141.683594 218.722656 142.90625 C 216.824219 143.398438 214.957031 144.042969 213.042969 144.460938 C 210.828125 144.949219 208.578125 145.269531 206.339844 145.664062 C 206.289062 145.441406 206.238281 145.222656 206.1875 145.003906 Z M 206.1875 145.003906 "/>
<path style=" stroke:none;fill-rule:nonzero;fill:rgb(44.709778%,77.648926%,65.489197%);fill-opacity:1;" d="M 179.988281 158.605469 C 179.730469 157.960938 179.394531 157.320312 179.214844 156.640625 C 178.972656 155.695312 178.773438 154.796875 178.191406 153.929688 C 177.316406 152.625 177.738281 151.757812 179.507812 150.496094 C 180.644531 151.296875 179.78125 152.84375 180.824219 153.878906 C 181.074219 153.644531 181.46875 153.445312 181.574219 153.144531 C 181.785156 152.542969 181.839844 151.882812 181.949219 151.3125 C 182.839844 150.9375 183.351562 151.347656 183.632812 151.96875 C 183.988281 152.75 184.207031 153.59375 184.585938 154.71875 C 184.273438 155.40625 183.839844 156.371094 183.246094 157.683594 C 182.765625 157.007812 182.457031 156.574219 182.183594 156.1875 C 180.625 156.289062 181.335938 158.144531 179.988281 158.605469 Z M 179.988281 158.605469 "/>
<path style=" stroke:none;fill-rule:nonzero;fill:rgb(44.709778%,77.648926%,65.489197%);fill-opacity:1;" d="M 169.011719 150.308594 C 170.203125 150.703125 171.390625 151.09375 172.789062 151.554688 C 170.253906 151.773438 170.253906 151.773438 169.03125 150.320312 Z M 169.011719 150.308594 "/>
<path style=" stroke:none;fill-rule:nonzero;fill:rgb(44.709778%,77.648926%,65.489197%);fill-opacity:1;" d="M 162.328125 148.464844 C 161.507812 148.816406 161.070312 149.125 160.621094 149.152344 C 160.296875 149.167969 159.945312 148.808594 159.621094 148.59375 C 159.574219 148.566406 159.589844 148.320312 159.632812 148.300781 C 159.988281 148.148438 160.355469 147.914062 160.714844 147.921875 C 161.113281 147.929688 161.503906 148.171875 162.328125 148.464844 Z M 162.328125 148.464844 "/>
<path style=" stroke:none;fill-rule:nonzero;fill:rgb(44.709778%,77.648926%,65.489197%);fill-opacity:1;" d="M 176.890625 155.410156 C 177 155.804688 177.125 156.199219 177.214844 156.597656 C 177.28125 156.890625 177.304688 157.191406 177.347656 157.507812 C 176.605469 157.546875 176.753906 157 176.6875 156.652344 C 176.613281 156.261719 176.621094 155.855469 176.59375 155.457031 C 176.691406 155.441406 176.792969 155.425781 176.890625 155.410156 Z M 176.890625 155.410156 "/>
<path style=" stroke:none;fill-rule:nonzero;fill:rgb(44.709778%,77.648926%,65.489197%);fill-opacity:1;" d="M 169.03125 150.320312 C 168.777344 150.390625 168.523438 150.464844 168.269531 150.539062 C 168.261719 150.511719 168.253906 150.488281 168.246094 150.460938 C 168.496094 150.410156 168.746094 150.359375 169.007812 150.308594 C 169.011719 150.308594 169.03125 150.320312 169.03125 150.320312 Z M 169.03125 150.320312 "/>
</g>
</svg>
