<?xml version="1.0" encoding="UTF-8"?>
<svg xmlns="http://www.w3.org/2000/svg" xmlns:xlink="http://www.w3.org/1999/xlink" width="375pt" height="374.999991pt" viewBox="0 0 375 374.999991" version="1.2">
<defs>
<clipPath id="clip1">
  <path d="M 46 110.128906 L 190.75 110.128906 L 190.75 260.128906 L 46 260.128906 Z M 46 110.128906 "/>
</clipPath>
<clipPath id="clip2">
  <path d="M 99 110.128906 L 138 110.128906 L 138 130 L 99 130 Z M 99 110.128906 "/>
</clipPath>
<clipPath id="clip3">
  <path d="M 187.5 110.128906 L 332.25 110.128906 L 332.25 260.128906 L 187.5 260.128906 Z M 187.5 110.128906 "/>
</clipPath>
<clipPath id="clip4">
  <path d="M 240 110.128906 L 279 110.128906 L 279 130 L 240 130 Z M 240 110.128906 "/>
</clipPath>
<clipPath id="clip5">
  <path d="M 129.183594 127.335938 L 267.183594 127.335938 L 267.183594 277.335938 L 129.183594 277.335938 Z M 129.183594 127.335938 "/>
</clipPath>
<clipPath id="clip6">
  <path d="M 173 127.335938 L 224 127.335938 L 224 159 L 173 159 Z M 173 127.335938 "/>
</clipPath>
</defs>
<g id="surface1">
<g clip-path="url(#clip1)" clip-rule="nonzero">
<path style=" stroke:none;fill-rule:nonzero;fill:rgb(83.918762%,85.879517%,100%);fill-opacity:1;" d="M 164.367188 168.988281 L 191.089844 163.292969 L 175.257812 130.222656 C 174.210938 128.039062 172.796875 126.121094 171.015625 124.476562 C 169.234375 122.828125 167.210938 121.566406 164.945312 120.6875 L 137.648438 110.128906 C 133.832031 113.925781 128.105469 117.722656 118.5625 117.722656 C 109.019531 117.722656 103.292969 113.925781 99.476562 110.128906 L 72.179688 120.6875 C 69.914062 121.566406 67.886719 122.828125 66.105469 124.476562 C 64.324219 126.121094 62.910156 128.039062 61.863281 130.222656 L 46.035156 163.292969 L 72.753906 168.988281 L 80.390625 205.066406 L 67.027344 260.128906 L 170.09375 260.128906 L 156.734375 205.066406 Z M 164.367188 168.988281 "/>
</g>
<g clip-path="url(#clip2)" clip-rule="nonzero">
<path style=" stroke:none;fill-rule:nonzero;fill:rgb(56.469727%,55.688477%,100%);fill-opacity:1;" d="M 137.648438 110.128906 C 137.648438 110.75 137.617188 111.371094 137.554688 111.988281 C 137.496094 112.609375 137.402344 113.222656 137.28125 113.832031 C 137.160156 114.441406 137.007812 115.046875 136.824219 115.640625 C 136.644531 116.234375 136.433594 116.820312 136.195312 117.394531 C 135.957031 117.96875 135.6875 118.53125 135.394531 119.078125 C 135.097656 119.628906 134.777344 120.160156 134.429688 120.675781 C 134.082031 121.195312 133.710938 121.691406 133.316406 122.175781 C 132.917969 122.65625 132.5 123.113281 132.058594 123.554688 C 131.617188 123.996094 131.152344 124.410156 130.667969 124.804688 C 130.1875 125.199219 129.683594 125.570312 129.164062 125.914062 C 128.644531 126.261719 128.109375 126.582031 127.558594 126.875 C 127.007812 127.167969 126.441406 127.433594 125.867188 127.671875 C 125.289062 127.910156 124.699219 128.117188 124.101562 128.296875 C 123.503906 128.480469 122.898438 128.628906 122.285156 128.75 C 121.671875 128.871094 121.054688 128.964844 120.433594 129.023438 C 119.808594 129.085938 119.1875 129.117188 118.5625 129.117188 C 117.9375 129.117188 117.3125 129.085938 116.691406 129.023438 C 116.070312 128.964844 115.449219 128.871094 114.835938 128.75 C 114.226562 128.628906 113.621094 128.480469 113.019531 128.296875 C 112.421875 128.117188 111.835938 127.910156 111.257812 127.671875 C 110.679688 127.433594 110.117188 127.167969 109.5625 126.875 C 109.011719 126.582031 108.476562 126.261719 107.957031 125.914062 C 107.4375 125.570312 106.9375 125.199219 106.453125 124.804688 C 105.96875 124.410156 105.507812 123.996094 105.066406 123.554688 C 104.625 123.113281 104.203125 122.65625 103.808594 122.175781 C 103.410156 121.691406 103.039062 121.195312 102.691406 120.675781 C 102.34375 120.160156 102.023438 119.628906 101.730469 119.078125 C 101.433594 118.53125 101.167969 117.96875 100.929688 117.394531 C 100.6875 116.820312 100.480469 116.234375 100.296875 115.640625 C 100.117188 115.046875 99.964844 114.441406 99.84375 113.832031 C 99.71875 113.222656 99.628906 112.609375 99.566406 111.988281 C 99.507812 111.371094 99.476562 110.75 99.476562 110.128906 C 103.292969 113.925781 109.019531 117.722656 118.5625 117.722656 C 128.105469 117.722656 133.832031 113.925781 137.648438 110.128906 Z M 137.648438 110.128906 "/>
</g>
<path style=" stroke:none;fill-rule:nonzero;fill:rgb(20.388794%,21.569824%,29.798889%);fill-opacity:1;" d="M 72.753906 169.53125 C 72.738281 169.53125 72.71875 169.53125 72.699219 169.527344 C 72.550781 169.515625 72.429688 169.449219 72.332031 169.332031 C 72.238281 169.21875 72.195312 169.085938 72.210938 168.933594 L 74.121094 149.949219 C 74.136719 149.800781 74.203125 149.675781 74.316406 149.582031 C 74.433594 149.488281 74.566406 149.445312 74.71875 149.460938 C 74.867188 149.476562 74.988281 149.542969 75.085938 149.660156 C 75.179688 149.773438 75.222656 149.90625 75.207031 150.054688 L 73.296875 169.042969 C 73.28125 169.183594 73.222656 169.296875 73.121094 169.390625 C 73.015625 169.484375 72.894531 169.53125 72.753906 169.53125 Z M 72.753906 169.53125 "/>
<path style=" stroke:none;fill-rule:nonzero;fill:rgb(20.388794%,21.569824%,29.798889%);fill-opacity:1;" d="M 164.367188 169.53125 C 164.226562 169.53125 164.105469 169.484375 164.003906 169.390625 C 163.898438 169.296875 163.839844 169.183594 163.824219 169.042969 L 161.917969 150.054688 C 161.902344 149.90625 161.941406 149.773438 162.039062 149.660156 C 162.132812 149.542969 162.253906 149.476562 162.40625 149.460938 C 162.554688 149.445312 162.6875 149.488281 162.804688 149.582031 C 162.921875 149.675781 162.988281 149.796875 163.003906 149.949219 L 164.910156 168.933594 C 164.925781 169.085938 164.886719 169.214844 164.789062 169.332031 C 164.695312 169.449219 164.574219 169.515625 164.421875 169.527344 C 164.40625 169.53125 164.386719 169.53125 164.367188 169.53125 Z M 164.367188 169.53125 "/>
<g clip-path="url(#clip3)" clip-rule="nonzero">
<path style=" stroke:none;fill-rule:nonzero;fill:rgb(34.509277%,44.709778%,99.609375%);fill-opacity:1;" d="M 305.5625 168.988281 L 332.214844 163.292969 L 316.425781 130.222656 C 315.382812 128.039062 313.972656 126.121094 312.195312 124.476562 C 310.417969 122.828125 308.398438 121.566406 306.136719 120.6875 L 278.910156 110.128906 C 275.105469 113.925781 269.394531 117.722656 259.875 117.722656 C 250.355469 117.722656 244.644531 113.925781 240.839844 110.128906 L 213.613281 120.6875 C 211.351562 121.566406 209.332031 122.828125 207.554688 124.476562 C 205.777344 126.121094 204.367188 128.039062 203.324219 130.222656 L 187.535156 163.292969 L 214.1875 168.988281 L 221.800781 205.066406 L 208.476562 260.128906 L 311.273438 260.128906 L 297.949219 205.066406 Z M 305.5625 168.988281 "/>
</g>
<g clip-path="url(#clip4)" clip-rule="nonzero">
<path style=" stroke:none;fill-rule:nonzero;fill:rgb(56.469727%,55.688477%,100%);fill-opacity:1;" d="M 278.910156 110.128906 C 278.910156 110.75 278.882812 111.371094 278.820312 111.988281 C 278.757812 112.609375 278.667969 113.222656 278.546875 113.832031 C 278.425781 114.441406 278.273438 115.046875 278.09375 115.640625 C 277.910156 116.234375 277.699219 116.820312 277.460938 117.394531 C 277.222656 117.96875 276.957031 118.53125 276.664062 119.078125 C 276.371094 119.628906 276.050781 120.160156 275.703125 120.675781 C 275.355469 121.195312 274.984375 121.691406 274.589844 122.175781 C 274.195312 122.65625 273.777344 123.113281 273.335938 123.554688 C 272.894531 123.996094 272.433594 124.410156 271.953125 124.804688 C 271.46875 125.199219 270.96875 125.570312 270.453125 125.914062 C 269.933594 126.261719 269.398438 126.582031 268.847656 126.875 C 268.300781 127.167969 267.734375 127.433594 267.160156 127.671875 C 266.582031 127.910156 265.996094 128.117188 265.402344 128.296875 C 264.804688 128.480469 264.199219 128.628906 263.589844 128.75 C 262.976562 128.871094 262.363281 128.964844 261.742188 129.023438 C 261.121094 129.085938 260.5 129.117188 259.875 129.117188 C 259.25 129.117188 258.628906 129.085938 258.007812 129.023438 C 257.386719 128.964844 256.773438 128.871094 256.160156 128.75 C 255.550781 128.628906 254.945312 128.480469 254.347656 128.296875 C 253.753906 128.117188 253.164062 127.910156 252.589844 127.671875 C 252.015625 127.433594 251.449219 127.167969 250.902344 126.875 C 250.351562 126.582031 249.816406 126.261719 249.296875 125.914062 C 248.78125 125.570312 248.28125 125.199219 247.796875 124.804688 C 247.316406 124.410156 246.855469 123.996094 246.414062 123.554688 C 245.972656 123.113281 245.554688 122.65625 245.160156 122.175781 C 244.765625 121.691406 244.394531 121.195312 244.046875 120.675781 C 243.699219 120.160156 243.378906 119.628906 243.085938 119.078125 C 242.792969 118.53125 242.527344 117.96875 242.289062 117.394531 C 242.046875 116.820312 241.839844 116.234375 241.65625 115.640625 C 241.476562 115.046875 241.324219 114.441406 241.203125 113.832031 C 241.082031 113.222656 240.992188 112.609375 240.929688 111.988281 C 240.867188 111.371094 240.839844 110.75 240.839844 110.128906 C 244.644531 113.925781 250.355469 117.722656 259.875 117.722656 C 269.394531 117.722656 275.105469 113.925781 278.910156 110.128906 Z M 278.910156 110.128906 "/>
</g>
<path style=" stroke:none;fill-rule:nonzero;fill:rgb(20.388794%,21.569824%,29.798889%);fill-opacity:1;" d="M 214.1875 169.53125 C 214.167969 169.53125 214.152344 169.53125 214.132812 169.527344 C 213.984375 169.515625 213.859375 169.449219 213.765625 169.332031 C 213.671875 169.21875 213.628906 169.085938 213.644531 168.933594 L 215.550781 149.949219 C 215.5625 149.800781 215.628906 149.675781 215.746094 149.582031 C 215.863281 149.488281 215.996094 149.445312 216.144531 149.460938 C 216.292969 149.476562 216.417969 149.542969 216.511719 149.660156 C 216.605469 149.773438 216.648438 149.90625 216.632812 150.054688 L 214.726562 169.042969 C 214.714844 169.183594 214.65625 169.296875 214.550781 169.390625 C 214.449219 169.484375 214.328125 169.53125 214.1875 169.53125 Z M 214.1875 169.53125 "/>
<path style=" stroke:none;fill-rule:nonzero;fill:rgb(20.388794%,21.569824%,29.798889%);fill-opacity:1;" d="M 305.5625 169.53125 C 305.421875 169.53125 305.300781 169.484375 305.199219 169.390625 C 305.09375 169.296875 305.035156 169.183594 305.023438 169.042969 L 303.117188 150.054688 C 303.105469 149.90625 303.144531 149.773438 303.238281 149.660156 C 303.332031 149.542969 303.457031 149.476562 303.605469 149.460938 C 303.753906 149.445312 303.886719 149.488281 304.003906 149.582031 C 304.121094 149.675781 304.1875 149.796875 304.199219 149.949219 L 306.105469 168.933594 C 306.121094 169.085938 306.078125 169.214844 305.984375 169.332031 C 305.890625 169.449219 305.765625 169.515625 305.617188 169.527344 C 305.597656 169.53125 305.582031 169.53125 305.5625 169.53125 Z M 305.5625 169.53125 "/>
<g clip-path="url(#clip5)" clip-rule="nonzero">
<path style=" stroke:none;fill-rule:nonzero;fill:rgb(92.549133%,25.099182%,47.839355%);fill-opacity:1;" d="M 267.394531 148.417969 C 267.164062 147.546875 266.652344 146.898438 265.855469 146.46875 L 239.582031 132.210938 C 236.632812 130.621094 233.53125 129.414062 230.277344 128.589844 C 227.027344 127.765625 223.722656 127.347656 220.367188 127.335938 C 219.949219 127.335938 219.546875 127.417969 219.164062 127.574219 C 218.777344 127.734375 218.4375 127.960938 218.144531 128.253906 C 217.847656 128.546875 217.621094 128.882812 217.460938 129.265625 C 217.304688 129.648438 217.222656 130.046875 217.222656 130.460938 C 217.316406 133.375 216.886719 136.210938 215.929688 138.964844 C 214.972656 141.722656 213.550781 144.214844 211.667969 146.449219 C 210.835938 147.386719 209.914062 148.222656 208.902344 148.960938 C 207.890625 149.699219 206.808594 150.324219 205.664062 150.832031 C 204.515625 151.339844 203.328125 151.71875 202.097656 151.972656 C 200.867188 152.226562 199.625 152.347656 198.371094 152.335938 C 187.449219 152.335938 179.519531 143.136719 179.519531 130.460938 C 179.519531 130.046875 179.4375 129.648438 179.28125 129.265625 C 179.121094 128.882812 178.894531 128.546875 178.597656 128.253906 C 178.304688 127.960938 177.964844 127.734375 177.578125 127.574219 C 177.195312 127.417969 176.792969 127.335938 176.375 127.335938 C 173.019531 127.347656 169.714844 127.765625 166.460938 128.59375 C 163.207031 129.417969 160.105469 130.625 157.152344 132.21875 L 130.886719 146.46875 C 130.507812 146.675781 130.1875 146.945312 129.925781 147.285156 C 129.660156 147.621094 129.472656 147.996094 129.363281 148.410156 C 129.253906 148.820312 129.230469 149.238281 129.292969 149.664062 C 129.355469 150.085938 129.5 150.480469 129.722656 150.84375 L 145.433594 175.84375 C 145.71875 176.304688 146.097656 176.667969 146.570312 176.933594 C 147.046875 177.199219 147.554688 177.335938 148.097656 177.335938 L 154.425781 177.335938 C 154.582031 183.070312 155.148438 188.648438 155.734375 194.492188 C 156.863281 204.367188 157.460938 214.273438 157.523438 224.210938 C 156.480469 238.867188 153.402344 253.089844 148.292969 266.875 C 148.144531 267.273438 148.082031 267.683594 148.101562 268.105469 C 148.121094 268.527344 148.222656 268.929688 148.40625 269.3125 C 148.589844 269.695312 148.84375 270.023438 149.164062 270.304688 C 149.480469 270.585938 149.84375 270.792969 150.246094 270.925781 C 165.96875 275.4375 182.011719 277.574219 198.371094 277.335938 C 214.730469 277.574219 230.773438 275.4375 246.496094 270.925781 C 246.898438 270.792969 247.261719 270.585938 247.578125 270.304688 C 247.898438 270.023438 248.152344 269.695312 248.335938 269.3125 C 248.519531 268.929688 248.621094 268.527344 248.640625 268.105469 C 248.660156 267.683594 248.597656 267.273438 248.449219 266.875 C 243.335938 253.089844 240.257812 238.867188 239.21875 224.210938 C 239.28125 214.273438 239.878906 204.367188 241.007812 194.492188 C 241.597656 188.644531 242.160156 183.070312 242.316406 177.335938 L 248.644531 177.335938 C 249.1875 177.335938 249.691406 177.207031 250.167969 176.945312 C 250.640625 176.683594 251.019531 176.324219 251.308594 175.867188 L 267.019531 150.867188 C 267.5 150.105469 267.625 149.289062 267.394531 148.417969 Z M 267.394531 148.417969 "/>
</g>
<g clip-path="url(#clip6)" clip-rule="nonzero">
<path style=" stroke:none;fill-rule:nonzero;fill:rgb(76.078796%,9.408569%,35.688782%);fill-opacity:1;" d="M 220.367188 127.335938 L 176.375 127.335938 C 175.960938 127.335938 175.558594 127.417969 175.175781 127.574219 C 174.789062 127.734375 174.449219 127.960938 174.15625 128.253906 C 173.859375 128.546875 173.632812 128.882812 173.472656 129.265625 C 173.3125 129.648438 173.234375 130.046875 173.234375 130.460938 C 173.234375 146.757812 183.804688 158.585938 198.371094 158.585938 C 200.070312 158.601562 201.75 158.4375 203.414062 158.09375 C 205.074219 157.75 206.683594 157.234375 208.234375 156.546875 C 209.785156 155.859375 211.246094 155.015625 212.613281 154.015625 C 213.984375 153.015625 215.230469 151.882812 216.355469 150.617188 C 217.546875 149.226562 218.597656 147.738281 219.515625 146.15625 C 220.429688 144.574219 221.191406 142.921875 221.804688 141.199219 C 222.414062 139.476562 222.863281 137.710938 223.148438 135.90625 C 223.4375 134.105469 223.554688 132.289062 223.507812 130.460938 C 223.507812 130.046875 223.429688 129.648438 223.269531 129.265625 C 223.109375 128.882812 222.882812 128.546875 222.585938 128.253906 C 222.292969 127.960938 221.953125 127.734375 221.566406 127.574219 C 221.183594 127.417969 220.78125 127.335938 220.367188 127.335938 Z M 220.367188 127.335938 "/>
</g>
</g>
</svg>
