<svg xmlns="http://www.w3.org/2000/svg" viewBox="0 0 90 112.5" fill="none" x="0px" y="0px"><path d="M39.8546 66.7706C39.7748 66.7706 39.6927 66.7707 39.6106 66.7685C36.2115 66.7189 33.4469 65.4133 31.3923 62.8948C26.735 57.1778 27.1796 46.8055 28.1767 41.5806C28.7313 38.6714 31.1635 28.8497 39.1185 24.6456C44.4298 21.84 51.0101 22.1054 58.6781 25.4354C59.2047 25.6642 59.5351 26.1907 59.5135 26.7648L58.5034 52.6564C58.4969 52.8463 58.4495 53.0341 58.3675 53.2046C58.102 53.7593 51.7138 66.7706 39.8546 66.7706ZM47.1925 25.5066C44.6976 25.5066 42.4357 26.0399 40.42 27.1039C33.5591 30.7296 31.4053 39.5003 30.9089 42.1009C29.7327 48.2646 30.0565 56.8517 33.5484 61.1378C35.0807 63.0176 37.077 63.95 39.6517 63.9889C39.7165 63.9889 39.7812 63.991 39.8438 63.991C49.1434 63.991 54.8388 53.9448 55.7388 52.2399L56.699 27.6173C53.2373 26.2102 50.0607 25.5066 47.1925 25.5066ZM57.1156 52.6024H57.1243H57.1156Z" fill="black"/><path d="M44.039 85C36.7465 85 28.8672 83.7549 22.138 79.8248C13.6326 74.8568 8.43994 66.4616 6.70909 54.868C2.86106 29.0995 15.2814 12.3888 29.2988 7.25883C41.8853 2.65115 68.9443 3.85964 78.0669 22.6615C86.6543 40.3563 82.5647 51.9262 79.3641 57.2482C75.993 62.8508 70.5803 66.5887 65.5733 66.7679C62.9015 66.8564 60.7087 66.0299 59.0382 64.2904C55.1816 60.2719 55.7082 52.8089 55.7319 52.4938C55.7902 51.7298 56.4572 51.1538 57.2233 51.2142C57.9873 51.2725 58.5614 51.9392 58.5053 52.7053C58.5009 52.7701 58.0541 59.2554 61.0497 62.3696C62.1633 63.5264 63.6136 64.0637 65.4761 63.9903C68.8299 63.8695 73.688 61.2949 76.9836 55.8153C79.895 50.9767 83.5811 40.3908 75.5678 23.8766C67.1747 6.58106 41.9953 5.57538 30.2569 9.87011C17.2993 14.6137 5.84371 30.2389 9.46081 54.4578C11.0622 65.1774 15.7992 72.9035 23.5406 77.4248C40.765 87.4819 66.3115 78.7457 66.5597 78.6486C67.2762 78.3745 68.081 78.7329 68.3551 79.4515C68.6292 80.168 68.271 80.9707 67.5545 81.2469C67.3861 81.3074 56.5845 85 44.039 85Z" fill="black"/></svg>