<svg xmlns="http://www.w3.org/2000/svg" xmlns:xlink="http://www.w3.org/1999/xlink" xml:space="preserve" version="1.1" style="shape-rendering:geometricPrecision;text-rendering:geometricPrecision;image-rendering:optimizeQuality;" viewBox="0 0 472.48 513.2375" x="0px" y="0px" fill-rule="evenodd" clip-rule="evenodd"><defs><style type="text/css">
   
    .fil0 {fill:black}
   
  </style></defs><g><polygon class="fil0" points="401.93,238.43 401.93,410.59 284.71,410.59 284.71,288.48 187.78,288.48 187.78,410.59 70.55,410.59 70.55,238.43 236.25,80.61 "/><path class="fil0" d="M236.25 51.14l-197.59 188.2c-21.69,20.66 -53.22,-12.15 -31.12,-32.91l213.2 -200.28c8.73,-8.2 22.28,-8.2 31.01,0l100.39 94.3 0 -43.46c0,-5.83 4.77,-10.59 10.59,-10.59l28.95 0c5.83,0 10.6,4.76 10.6,10.59l0 90.56 62.68 58.88c22.09,20.75 -9.43,53.57 -31.13,32.91 -65.96,-62.83 -131.53,-125.29 -197.58,-188.2z"/></g></svg>