<svg xmlns="http://www.w3.org/2000/svg" xmlns:xlink="http://www.w3.org/1999/xlink" xml:space="preserve" style="shape-rendering:geometricPrecision;text-rendering:geometricPrecision;image-rendering:optimizeQuality;" viewBox="0 0 0.225646 0.37500625000000004" x="0px" y="0px" fill-rule="evenodd" clip-rule="evenodd"><defs><style type="text/css">
   
    .fil0 {fill:black;fill-rule:nonzero}
   
  </style></defs><g><path class="fil0" d="M0.00332683 0l0.0716154 0c-0.000212602,0.0142483 0.0010512,0.0260674 0.0112561,0.0378274 0.0068387,0.00787415 0.0162641,0.0127522 0.0266264,0.0127522 0.0103624,0 0.0197917,-0.00487804 0.0266304,-0.0127522 0.0102049,-0.0117561 0.0114726,-0.0235792 0.0112482,-0.0378274l0.0716194 0 -0.0493276 0.132487 0.0526505 0.159751 -0.00675602 0.00759462c-0.0103191,-0.0131065 -0.0195436,-0.0133624 -0.0302053,0.000173231 -0.0103624,-0.0131577 -0.019524,-0.0137365 -0.030343,0 -0.0103624,-0.0131577 -0.01952,-0.0137365 -0.0303391,0 -0.0103624,-0.0131577 -0.019524,-0.0137365 -0.030343,0 -0.0103624,-0.0131577 -0.01952,-0.0137365 -0.0303391,0 -0.0103624,-0.0131577 -0.019524,-0.0137365 -0.030343,0 -0.0101104,-0.0128427 -0.019331,-0.0139766 -0.0302092,-0.000169294l-0.00676783 -0.00758675 0.0526584 -0.159763 -0.0493316 -0.132487zm0.132298 0.146782l0.0199846 0.0346187 -0.0166775 0.00963009 -0.0255438 -0.0442488 -0.00111419 0 -0.0255477 0.0442488 -0.0166775 -0.00963009 0.0199885 -0.0346187 -0.0325911 0 -0.0449063 0.13625c0.00800801,-0.0031536 0.0176735,-0.0019961 0.0244414,0.00336226 0.00866157,-0.00678752 0.0217563,-0.00680327 0.030343,0 0.00865763,-0.00678752 0.0217563,-0.00680327 0.030343,0 0.00865763,-0.00678752 0.0217523,-0.00680327 0.0303391,0 0.00865763,-0.00678752 0.0217563,-0.00680327 0.030343,0 0.00865763,-0.00678752 0.0217523,-0.00680327 0.0303391,0 0.00681508,-0.00534261 0.0163507,-0.0065513 0.0244296,-0.00336226l-0.0449102 -0.13625 -0.0325832 0zm-0.119333 -0.13775l0.0412015 0.110655 0.110671 0 0.0412015 -0.110655 -0.049615 0c-0.000625995,0.0134845 -0.00566939,0.0256737 -0.0134845,0.0346817 -0.00852771,0.00982301 -0.0203468,0.0158979 -0.0334415,0.0158979 -0.013079,0 -0.0249138,-0.00607491 -0.0334376,-0.0158979 -0.00781903,-0.00900803 -0.0128624,-0.0211972 -0.0134884,-0.0346817l-0.0496072 0z"/></g><text x="0" y="15.300005" fill="#000000" font-size="5px" font-weight="bold" font-family="'Helvetica Neue', Helvetica, Arial-Unicode, Arial, Sans-serif">Created by jeremy</text><text x="0" y="20.300005" fill="#000000" font-size="5px" font-weight="bold" font-family="'Helvetica Neue', Helvetica, Arial-Unicode, Arial, Sans-serif">from the Noun Project</text></svg>